#!OML:ASF F:\VICON\USERDATA\INSTALL\rory3\rory3.ASF
:FULLY-SPECIFIED
:DEGREES
85
root -0.16508719345966838 17.857391850662346 32.7487969471158 -4.100462188462236 -1.020110464106276 -5.1968761161275205
lfemur -12.099883249772342 -0.2448514260455572 -15.151729476285842
ltibia 53.32578204963393
lfoot -4.511403178453087 -3.1404880092599514
ltoes -5.660936035134803
rfemur -12.758208315876313 6.410824037925307 28.13463517117378
rtibia 37.86564297908853
rfoot -8.478525069372958 -4.887209588117041
rtoes 5.748848191706663
lowerback 9.681573342365049 0.22352213360925177 2.1796004881562423
upperback 0.485075939012164 0.767218396435492 2.332261617171273
thorax -4.934139673964206 0.4082698142922983 0.7793384767015852
lowerneck -15.98741260778281 -2.70265503677045 -1.963040835499175
upperneck 20.90020447809337 -3.140988698965277 0.8870621855062683
head 9.304794048612342 -1.7202561900181914 0.11258715953568166
lclavicle -1.3860207461538637e-15 -1.8423909078331223e-15
lhumerus -31.344526284984813 2.113434053388332 83.18319686810506
lradius 20.91237431346271
lwrist 1.6131571480720515
lhand -26.734552419504322 24.71800279394708
lfingers 7.125019999999999
lthumb -0.5269305591197712 54.27492912027764
rclavicle -1.3880244278061617e-15 -1.84425276717624e-15
rhumerus -32.15360000288065 -26.416510083829337 -74.69774189563064
rradius 23.232082672850915
rwrist 8.821933611964747
rhand -18.392069153419694 22.664935454923654
rfingers 7.125019999999999
rthumb 7.839475525364565 -7.142379854526032
86
root -0.1831203559344814 17.857451947605657 32.98762825975812 -4.035895603962908 -1.514217145804454 -5.6049815830806535
lfemur -16.87283438001699 1.2230951036768496 -14.713754411475609
ltibia 53.27672961161196
lfoot -5.035079834009157 -3.249606825722407
ltoes -5.383211306347899
rfemur -11.352053823559686 6.474633621269035 28.50758890532693
rtibia 38.883657135384624
rfoot -8.143410816908009 -4.725499754410386
rtoes 5.220688021751614
lowerback 9.733755854746065 0.44025400127234937 2.5867766590471506
upperback 0.43291370068897167 1.1021798073719828 2.2557342008665273
thorax -4.981643091053392 0.548254599120329 0.46643110831053824
lowerneck -16.010169697414085 -2.7214039034230955 -1.9502456138711974
upperneck 20.88508223379298 -3.1608296253248573 0.8427421541327492
head 9.341942614683976 -1.7064095232823169 0.1280325332891677
lclavicle -1.3860207461538637e-15 -1.8423909078331223e-15
lhumerus -32.32700361006522 2.9121227287053175 82.99674156465859
lradius 20.618653836387875
lwrist 1.42348975770587
lhand -26.685119743653424 24.821458080192855
lfingers 7.125019999999999
lthumb -0.44000771290284646 54.48099580951446
rclavicle -1.3880244278061617e-15 -1.84425276717624e-15
rhumerus -30.520789135761106 -23.7524086608157 -76.54173177249719
rradius 23.403677087856515
rwrist 7.937017217660252
rhand -18.396267046005025 22.668830272193148
rfingers 7.125019999999999
rthumb 7.842256660419574 -7.133051627163767
87
root -0.18619541982850119 17.841154755650944 33.4233546302482 -3.8227217880890776 -2.0600060427141718 -6.015334152722018
lfemur -21.184820333399045 2.3196132845458832 -14.272740415578074
ltibia 51.74316721191457
lfoot -5.61457593926974 -3.3738907647431766
ltoes -5.384575804499624
rfemur -9.825550311599361 6.550265288968082 28.903415907613827
rtibia 40.11969701095955
rfoot -8.009134095408779 -4.704962856037744
rtoes 4.880666119237241
lowerback 9.791841835125126 0.6636021825653671 3.014527343000543
upperback 0.37929785351913115 1.4838214449652103 2.2040704216012896
thorax -5.008476887038204 0.7029681737370079 0.18357183354445183
lowerneck -16.014346769698598 -2.726525489342687 -1.9185331231142324
upperneck 20.823407932790833 -3.207507473626164 0.7787223700284633
head 9.348493585263332 -1.7052764074230147 0.12836906117910107
lclavicle -1.3860207461538633e-15 -1.842390907833122e-15
lhumerus -33.305330466565536 3.8927365769140705 82.68628201040809
lradius 20.54538891333101
lwrist 1.0868828796175256
lhand -26.79759631823878 24.62934192463759
lfingers 7.125019999999999
lthumb -0.641422443420781 54.13653508157144
rclavicle -1.3880244278061619e-15 -1.84425276717624e-15
rhumerus -28.854365493065295 -21.05902858769532 -78.07908730737599
rradius 23.526305881395633
rwrist 7.017312084572799
rhand -18.402882662977248 22.68269708763321
rfingers 7.125019999999999
rthumb 7.875986283789 -7.090490189603667
88
root -0.17726902375210862 17.815141723068802 33.98293376085818 -3.455934204139738 -2.6137494503065515 -6.444798403178414
lfemur -24.833319331477195 2.921849764190797 -13.75625915871776
ltibia 49.163943355500976
lfoot -5.948704530932247 -3.206012619294183
ltoes -5.371537058088922
rfemur -7.749976348963296 6.733654493683954 29.555702592731542
rtibia 40.98144188131325
rfoot -8.018058463435562 -4.642876045426794
rtoes 4.629617881943472
lowerback 9.813186509768414 0.8580757185624708 3.386815953559362
upperback 0.3147131431113027 1.8447245026900583 2.157361353998648
thorax -5.0296112662046 0.8479376525223887 -0.13457194271945205
lowerneck -16.04697587287516 -2.740483811281993 -1.902735163465265
upperneck 20.785760872416084 -3.243469223193786 0.7502903320833321
head 9.347423294392218 -1.7079441113644378 0.12588911041720297
lclavicle -1.3860207461538635e-15 -1.8423909078331223e-15
lhumerus -34.20796686720436 5.007547072054926 82.25120621803654
lradius 20.632977159271118
lwrist 0.8385871201568715
lhand -26.745973078977652 24.75670424430887
lfingers 7.125019999999999
lthumb -0.4963485329607783 54.416013978576004
rclavicle -1.3880244278061619e-15 -1.84425276717624e-15
rhumerus -27.37621570483147 -18.85002007154209 -79.3631536475739
rradius 23.675014384951957
rwrist 6.151247556321039
rhand -18.427123342525924 22.654027976567782
rfingers 7.125019999999999
rthumb 7.902118379874568 -7.0553303159409735
89
root -0.15783619033181762 17.785548543062085 34.657304732089386 -2.9487821868908775 -3.1506213940198693 -6.860906501447511
lfemur -27.316237379295934 2.942836314060732 -13.140375600426566
ltibia 45.89837956358863
lfoot -7.164488247794363 -3.4331885442725194
ltoes -5.3500622074819955
rfemur -6.04671494048928 6.810016395208894 30.01757733307495
rtibia 41.74242699326758
rfoot -8.095509516395571 -4.541442877009672
rtoes 3.9059208665346814
lowerback 9.808297130207844 1.0439966737137494 3.741659644923921
upperback 0.25187143769645803 2.2014160587224287 2.132003216874478
thorax -5.036168596371675 0.9757238906663719 -0.4312826806600589
lowerneck -16.057943491589015 -2.751549333654763 -1.8800699721658622
upperneck 20.738645186929126 -3.277542983862825 0.7132014696550236
head 9.318516470009458 -1.7243786643554555 0.1161766608651208
lclavicle -1.3860207461538632e-15 -1.842390907833122e-15
lhumerus -34.96027572160669 6.217877461248488 81.71140680420875
lradius 20.85679228921621
lwrist 0.6828144822347322
lhand -26.849037787626983 24.585901998122054
lfingers 7.125019999999999
lthumb -0.652952397470254 54.122809255451095
rclavicle -1.3880244278061619e-15 -1.84425276717624e-15
rhumerus -25.95409416001851 -17.05572904284965 -80.30236602341057
rradius 23.933968412449396
rwrist 5.392182865732682
rhand -18.417510576797525 22.65585183725015
rfingers 7.125019999999999
rthumb 7.954903375452464 -6.974002913283576
90
root -0.1342520413825935 17.752117714283187 35.18353916261386 -2.372977582777404 -3.686907077231182 -7.249923976470422
lfemur -28.68769275816276 2.0366755019093095 -12.487283588424377
ltibia 42.60523033839773
lfoot -6.853725698000881 -2.3772030387919987
ltoes -5.22457009877361
rfemur -4.303875074992904 6.88960581110312 30.41978696922728
rtibia 42.44109280115852
rfoot -7.960202883246599 -4.384023308378089
rtoes 2.9872269190755936
lowerback 9.762813860303725 1.2090474874287627 4.063561413508953
upperback 0.17894756576556536 2.4406620259269607 2.0776799516427182
thorax -5.036656388546749 1.0757738293412236 -0.6869822518360753
lowerneck -16.0649648383751 -2.759885444132256 -1.840655184396336
upperneck 20.71643520528494 -3.304844714298934 0.7002370588624554
head 9.312708897461341 -1.7377630185056132 0.11814178228013911
lclavicle -1.3860207461538632e-15 -1.842390907833122e-15
lhumerus -35.514362363546255 7.481305791209298 81.11097774451721
lradius 21.20830734066682
lwrist 0.6827565385925434
lhand -26.854641810900077 24.627098656064284
lfingers 7.125019999999999
lthumb -0.5102504083244561 54.383096164665695
rclavicle -1.3880244278061619e-15 -1.84425276717624e-15
rhumerus -24.691280667950945 -15.781462064046304 -80.97688625104043
rradius 24.287234043661794
rwrist 4.525005268072052
rhand -18.427293370049274 22.642413699576565
rfingers 7.125019999999999
rthumb 7.970962817180966 -6.956974178402573
91
root -0.10924872972874555 17.71254715246024 35.499924321190626 -1.8390952249134092 -4.207409995340921 -7.55626989774893
lfemur -29.238106449825217 -0.08605928001304708 -11.591750588728726
ltibia 39.44602978838465
lfoot -7.513828262182925 -2.4571990709570213
ltoes -5.02712219092278
rfemur -3.2471058012226575 6.886916469159242 30.48259419558697
rtibia 43.502464523531124
rfoot -7.8917815567592005 -4.317538581874697
rtoes 2.5126170138290944
lowerback 9.727717674233977 1.4102061095439693 4.457365447926271
upperback 0.12252523295227868 2.6495216446696825 2.031644601178403
thorax -5.023691140888281 1.1549618418248258 -0.8353459762281201
lowerneck -16.084401778301352 -2.7863877099659 -1.8392246783219601
upperneck 20.761557146665474 -3.315678134003602 0.7192715929580228
head 9.280217260578834 -1.7618600416064754 0.1033606059944212
lclavicle -1.386020746153863e-15 -1.842390907833122e-15
lhumerus -35.93197747519063 8.736643114353239 80.47059532135036
lradius 21.621083017857313
lwrist 0.9904548488210203
lhand -26.921212738550306 24.516844483925116
lfingers 7.125019999999999
lthumb -0.6905220203324421 54.04560562792622
rclavicle -1.3880244278061619e-15 -1.84425276717624e-15
rhumerus -23.624959197714897 -15.001084942000864 -81.45240189462396
rradius 24.65403102166154
rwrist 3.7801055880873644
rhand -18.43071099044726 22.632036115094138
rfingers 7.125019999999999
rthumb 7.969297213989079 -6.978617479195331
92
root -0.07704187364033654 17.66960129392882 35.97485465117344 -1.4546545533854265 -4.623546463446191 -7.664253201190565
lfemur -28.456670845776024 -3.3519586722325583 -10.056674898404777
ltibia 37.00889910454194
lfoot -7.505519580686253 -2.2159410690791983
ltoes -4.8382213736114705
rfemur -1.9566817230325917 6.8884945917495015 30.64490375412246
rtibia 44.706389458921585
rfoot -7.864691941423146 -4.269078246906547
rtoes 2.8276289010774796
lowerback 9.62797057797293 1.5059894451126183 4.507228904121686
upperback 0.08278691686300554 2.7952753653824502 1.9667809685186
thorax -5.016926120636579 1.2010767353702423 -0.9177627498127034
lowerneck -16.058738857064906 -2.7989668769102205 -1.8309777316757572
upperneck 20.823434547629777 -3.3303154575476324 0.7375991229138391
head 9.288890291799131 -1.7716811507294725 0.111503850920886
lclavicle -1.3860207461538632e-15 -1.842390907833122e-15
lhumerus -36.37609384363776 9.840280344461942 79.78978666869767
lradius 22.107885117479523
lwrist 1.432768800865041
lhand -26.911924548789248 24.551273497550014
lfingers 7.125019999999999
lthumb -0.5375985663189957 54.326247254551106
rclavicle -1.3880244278061617e-15 -1.84425276717624e-15
rhumerus -22.7878168319006 -14.620366024678441 -81.71462480232597
rradius 25.018671939103047
rwrist 3.186011556352524
rhand -18.425320749827982 22.635804252903483
rfingers 7.125019999999999
rthumb 7.929348599621476 -7.068025521649226
